<?xml version="1.0" encoding="UTF-8" standalone="no"?>
<svg
   version="1.0"
   width="512.000000pt"
   height="512.000000pt"
   viewBox="0 0 512.000000 512.000000"
   preserveAspectRatio="xMidYMid meet"
   id="svg91"
   sodipodi:docname="Thanatology.svg"
   inkscape:version="1.4 (e7c3feb1, 2024-10-09)"
   inkscape:export-filename="../src-tauri/icons/32x32.png"
   inkscape:export-xdpi="4.5"
   inkscape:export-ydpi="4.5"
   xmlns:inkscape="http://www.inkscape.org/namespaces/inkscape"
   xmlns:sodipodi="http://sodipodi.sourceforge.net/DTD/sodipodi-0.dtd"
   xmlns:xlink="http://www.w3.org/1999/xlink"
   xmlns="http://www.w3.org/2000/svg"
   xmlns:svg="http://www.w3.org/2000/svg">
  <defs
     id="defs91">
    <linearGradient
       id="linearGradient5"
       inkscape:collect="always">
      <stop
         style="stop-color:#000000;stop-opacity:0;"
         offset="0"
         id="stop7" />
      <stop
         style="stop-color:#000000;stop-opacity:1;"
         offset="1"
         id="stop6" />
    </linearGradient>
    <inkscape:path-effect
       effect="fillet_chamfer"
       id="path-effect1"
       is_visible="true"
       lpeversion="1"
       nodesatellites_param="F,0,0,1,0,0,0,1 @ F,0,0,1,0,0,0,1 @ F,0,0,1,0,0,0,1 @ F,0,0,1,0,0,0,1"
       radius="0"
       unit="px"
       method="auto"
       mode="F"
       chamfer_steps="1"
       flexible="false"
       use_knot_distance="true"
       apply_no_radius="true"
       apply_with_radius="true"
       only_selected="false"
       hide_knots="false" />
    <linearGradient
       inkscape:collect="always"
       xlink:href="#linearGradient5"
       id="linearGradient7"
       x1="231.09746"
       y1="565.11151"
       x2="3119.5457"
       y2="-3138.1943"
       gradientUnits="userSpaceOnUse" />
  </defs>
  <sodipodi:namedview
     id="namedview91"
     pagecolor="#ffffff"
     bordercolor="#000000"
     borderopacity="0.25"
     inkscape:showpageshadow="2"
     inkscape:pageopacity="0.0"
     inkscape:pagecheckerboard="0"
     inkscape:deskcolor="#d1d1d1"
     inkscape:document-units="pt"
     inkscape:zoom="0.94780184"
     inkscape:cx="371.91318"
     inkscape:cy="329.18273"
     inkscape:window-width="1728"
     inkscape:window-height="1045"
     inkscape:window-x="0"
     inkscape:window-y="45"
     inkscape:window-maximized="0"
     inkscape:current-layer="g91"
     inkscape:export-bgcolor="#12121200" />
  <metadata
     id="metadata1">
Created by potrace 1.16, written by Peter Selinger 2001-2019
</metadata>
  <g
     transform="translate(0.000000,512.000000) scale(0.100000,-0.100000)"
     fill="#000000"
     stroke="none"
     id="g91">
    <rect
       style="color:#000000;font-style:normal;font-variant:normal;font-weight:normal;font-stretch:normal;font-size:medium;line-height:normal;font-family:sans-serif;font-variant-ligatures:normal;font-variant-position:normal;font-variant-caps:normal;font-variant-numeric:normal;font-variant-alternates:normal;font-variant-east-asian:normal;font-feature-settings:normal;font-variation-settings:normal;text-indent:0;text-align:start;text-decoration-line:none;text-decoration-style:solid;text-decoration-color:#000000;letter-spacing:normal;word-spacing:normal;text-transform:none;writing-mode:lr-tb;direction:ltr;text-orientation:mixed;dominant-baseline:auto;baseline-shift:baseline;text-anchor:start;white-space:normal;shape-padding:0;shape-margin:0;inline-size:0;clip-rule:nonzero;display:inline;overflow:visible;visibility:visible;isolation:auto;mix-blend-mode:normal;color-interpolation:sRGB;color-interpolation-filters:linearRGB;solid-color:#000000;solid-opacity:1;vector-effect:none;fill:url(#linearGradient7);fill-rule:nonzero;stroke:none;stroke-width:1.0238;stroke-linecap:butt;stroke-linejoin:miter;stroke-miterlimit:4;stroke-dasharray:none;stroke-dashoffset:0;stroke-opacity:1;-inkscape-stroke:none;paint-order:markers fill stroke;color-rendering:auto;image-rendering:auto;shape-rendering:auto;text-rendering:auto;enable-background:accumulate;stop-color:#000000;stop-opacity:1"
       id="rect1"
       width="5103.729"
       height="5103.7285"
       x="9.7184601"
       y="-5104.4932"
       transform="scale(1,-1)"
       sodipodi:type="rect"
       ry="1179.0442" />
    <g
       id="g1"
       transform="translate(6.3470804)">
      <path
         d="m 2360,4579 c -224,-26 -449,-93 -659,-194 -200,-97 -288,-155 -237,-155 7,0 58,25 112,56 306,174 604,256 1004,277 25,1 44,7 43,12 -4,13 -166,15 -263,4 z"
         id="path1"
         style="fill:#fffefe;fill-opacity:1" />
      <path
         d="m 2785,4561 c -6,-11 10,-16 83,-25 26,-4 42,-2 42,4 0,13 -11,17 -72,25 -27,3 -49,2 -53,-4 z"
         id="path2"
         style="fill:#fffefe;fill-opacity:1" />
      <path
         d="m 3032,4514 c 9,-9 21,-13 27,-9 16,10 3,25 -22,25 -20,0 -20,-1 -5,-16 z"
         id="path3"
         style="fill:#fffefe;fill-opacity:1" />
      <path
         d="m 2330,4509 c -106,-14 -256,-48 -373,-86 -138,-45 -378,-163 -480,-237 -78,-56 -100,-65 -112,-46 -16,26 -53,2 -176,-117 C 959,3800 793,3557 696,3304 648,3176 601,2984 596,2887 l -5,-82 9,65 c 67,475 307,906 682,1223 48,41 60,47 77,38 32,-18 45,-14 137,45 322,203 717,324 1055,324 33,0 59,4 59,10 0,12 -185,11 -280,-1 z"
         id="path4"
         style="fill:#fffefe;fill-opacity:1" />
      <path
         d="m 2710,4500 c -6,-11 -19,-20 -29,-20 -34,0 -50,-32 -53,-104 l -3,-68 -130,-3 c -196,-5 -327,-29 -542,-101 -39,-13 -91,-24 -115,-24 -31,0 -64,-11 -118,-41 -48,-25 -65,-32 -46,-16 l 28,23 -24,28 -24,28 -82,-52 c -45,-29 -82,-57 -82,-64 0,-7 7,-21 15,-32 8,-10 15,-24 15,-30 0,-6 -43,-49 -96,-95 -53,-46 -104,-100 -114,-119 -10,-19 -39,-66 -65,-105 -59,-86 -221,-412 -259,-519 -27,-76 -68,-245 -80,-332 -5,-37 -3,-42 17,-48 12,-3 37,-6 55,-6 17,0 32,-3 32,-7 1,-5 2,-89 4,-188 3,-198 13,-259 72,-435 64,-192 174,-373 325,-533 58,-62 79,-79 93,-74 15,6 3,23 -72,102 -133,139 -227,276 -296,435 -76,171 -125,441 -112,607 4,46 3,90 -2,100 -9,16 -1,63 34,224 5,23 1,28 -35,43 -48,19 -48,20 1,146 50,127 119,251 198,354 109,143 122,165 116,191 -5,19 8,34 79,93 165,138 380,272 436,272 17,0 83,18 147,40 175,59 284,80 462,87 117,4 159,9 172,21 15,12 31,13 115,3 111,-14 230,-40 316,-70 34,-12 70,-18 86,-15 30,6 125,-37 238,-108 40,-25 69,-37 81,-34 12,4 26,-2 41,-18 22,-23 22,-25 5,-50 -22,-34 -7,-70 32,-80 23,-6 34,0 79,44 l 52,51 76,-71 75,-70 -34,-57 c -44,-73 -44,-105 -1,-136 55,-41 74,-40 29,1 -23,21 -42,42 -42,46 0,19 43,88 71,114 29,27 30,32 18,49 -20,28 -178,173 -188,173 -5,0 -22,-15 -39,-34 -25,-29 -33,-33 -46,-23 -15,11 -11,17 28,50 25,20 52,37 60,37 8,0 86,-69 172,-152 l 156,-152 -5,-43 c -3,-30 -13,-49 -33,-67 l -29,-26 28,10 c 16,5 30,10 32,10 3,0 29,-33 58,-72 46,-63 77,-129 77,-166 0,-6 -32,-23 -71,-38 -38,-15 -72,-31 -75,-36 -3,-4 19,1 48,13 29,12 62,25 73,29 18,7 27,-3 72,-89 197,-372 252,-806 153,-1208 -16,-67 -25,-122 -20,-127 16,-17 62,173 82,341 6,58 16,100 21,96 21,-13 -19,-257 -66,-406 -20,-63 -23,-79 -12,-84 25,-9 33,6 59,115 41,174 49,246 50,462 0,324 -39,538 -149,809 -58,143 -70,164 -80,139 -4,-9 18,-79 49,-155 84,-211 116,-338 141,-550 4,-34 2,-53 -5,-53 -5,0 -10,11 -10,24 0,110 -110,485 -179,611 -22,40 -37,75 -34,79 4,3 1,6 -5,6 -7,0 -12,12 -12,28 0,15 -4,42 -9,60 -9,30 -8,33 22,48 18,9 40,23 49,31 20,18 18,23 -73,143 -314,417 -723,679 -1209,774 -199,38 -227,40 -240,16 z m 180,-57 c 118,-19 253,-58 390,-111 111,-44 275,-132 275,-149 0,-5 -21,-34 -48,-64 l -47,-54 -43,24 c -149,84 -249,130 -269,122 -14,-5 -49,2 -106,21 -94,31 -208,54 -322,66 l -75,7 -3,58 c -2,42 2,66 13,84 16,23 20,24 78,18 34,-3 105,-13 157,-22 z M 1640,4095 c 0,-2 -10,-9 -22,-15 -22,-11 -22,-10 -4,4 21,17 26,19 26,11 z m 1947,-131 c 3,-9 0,-20 -8,-24 -15,-10 -39,6 -39,26 0,19 39,18 47,-2 z"
         id="path5"
         style="fill:#fffefe;fill-opacity:1" />
      <path
         d="m 3240,4445 c 0,-8 6,-15 14,-15 22,0 28,17 10,24 -22,9 -24,8 -24,-9 z"
         id="path6"
         style="fill:#fffefe;fill-opacity:1" />
      <path
         d="m 3161,4114 c -27,-35 -26,-59 4,-89 31,-32 59,-32 91,1 20,19 24,31 20,52 -15,61 -80,81 -115,36 z m 64,-24 c 10,-16 -16,-43 -28,-31 -11,11 -2,41 12,41 5,0 13,-5 16,-10 z"
         id="path7"
         style="fill:#fffefe;fill-opacity:1" />
      <path
         d="m 2385,4089 c -171,-25 -358,-92 -513,-184 -110,-65 -343,-243 -320,-245 3,0 30,21 60,46 29,25 100,77 157,116 268,179 511,258 799,258 308,0 548,-95 836,-329 136,-111 155,-126 196,-151 96,-58 235,-236 327,-420 59,-119 67,-126 23,-21 -104,243 -363,556 -588,710 -172,117 -344,182 -567,216 -107,16 -312,18 -410,4 z"
         id="path8"
         style="fill:#fffefe;fill-opacity:1" />
      <path
         d="m 1181,3944 c -65,-61 -79,-79 -70,-90 9,-11 27,1 93,63 44,42 81,81 81,86 0,28 -30,11 -104,-59 z"
         id="path9"
         style="fill:#fffefe;fill-opacity:1" />
      <path
         d="m 2410,4009 c -182,-23 -326,-71 -534,-176 -269,-135 -390,-234 -538,-440 -105,-146 -198,-350 -212,-469 -5,-41 -2,-35 19,36 100,329 257,549 533,747 48,35 92,63 97,62 6,0 1,-6 -10,-14 -11,-8 -52,-40 -92,-72 l -71,-56 75,-83 76,-83 64,53 c 35,29 92,70 126,90 51,29 172,146 153,146 -33,0 -254,-130 -292,-171 -10,-12 -32,-30 -49,-41 -16,-11 -1,8 35,41 73,67 186,138 273,170 31,11 57,19 57,17 0,-3 26,11 57,30 124,75 249,108 408,108 137,0 218,-17 322,-65 38,-18 77,-31 89,-30 12,1 44,-16 72,-38 28,-22 88,-60 134,-83 46,-24 109,-63 140,-86 31,-23 61,-42 66,-42 12,0 62,54 62,67 0,17 -111,116 -187,165 -266,177 -581,255 -873,217 z"
         id="path10"
         style="fill:#fffefe;fill-opacity:1" />
      <path
         d="m 1520,3907 c -79,-63 -84,-70 -60,-92 19,-17 21,-16 82,35 41,34 63,60 63,74 0,34 -27,29 -85,-17 z"
         id="path11"
         style="fill:#fffefe;fill-opacity:1" />
      <path
         d="m 1175,3824 c -120,-131 -192,-231 -178,-245 6,-6 39,26 90,88 44,54 115,131 157,171 63,60 75,76 65,88 -6,8 -15,14 -20,14 -4,0 -55,-52 -114,-116 z"
         id="path12"
         style="fill:#fffefe;fill-opacity:1" />
      <path
         d="m 2475,3870 c -164,-26 -280,-83 -386,-189 -46,-46 -86,-98 -102,-131 -32,-65 -57,-174 -57,-247 0,-45 -3,-53 -19,-53 -25,0 -141,-143 -141,-174 0,-3 23,-17 52,-32 l 51,-26 -7,81 c -6,74 -5,81 12,81 10,0 23,5 30,12 6,6 14,9 16,7 16,-15 49,-289 36,-289 -11,0 -15,16 -30,130 -14,105 -19,120 -32,120 -7,0 -8,-29 -3,-92 4,-51 7,-120 6,-153 -2,-57 36,-280 60,-353 6,-18 23,-39 37,-47 21,-11 23,-14 9,-15 -55,-1 -75,41 -108,227 -13,73 -27,133 -31,133 -18,0 -17,-47 2,-154 35,-196 62,-246 130,-246 37,0 37,0 55,-62 9,-35 31,-99 47,-143 27,-72 39,-88 113,-161 58,-57 96,-105 126,-159 38,-69 48,-80 93,-101 28,-13 70,-24 94,-24 35,0 42,3 42,20 0,16 -7,20 -30,20 -76,0 -130,49 -152,136 -10,45 -21,57 -117,140 -58,50 -114,105 -124,122 -11,18 -36,81 -56,140 -21,59 -45,118 -54,132 -27,43 -56,270 -33,270 9,0 16,-33 24,-105 9,-77 20,-125 43,-178 17,-39 44,-108 61,-152 29,-75 38,-87 146,-192 l 114,-112 31,22 c 18,12 34,23 36,25 3,1 -22,31 -56,65 -63,64 -207,246 -201,252 2,2 27,-7 55,-21 29,-15 77,-28 110,-31 70,-6 165,11 185,35 20,22 21,122 2,122 -19,0 -27,-19 -15,-34 31,-37 -23,-67 -132,-74 -58,-3 -88,0 -122,12 -85,33 -146,135 -168,281 -18,124 1,164 108,226 62,36 81,36 117,2 39,-37 37,-69 -6,-87 -34,-14 -65,-46 -33,-33 26,10 20,-13 -8,-35 -35,-27 -52,-88 -35,-128 28,-67 95,-88 158,-50 35,22 52,54 52,102 0,42 -57,98 -100,98 -25,0 -31,4 -28,18 5,28 54,27 98,-2 72,-48 89,-150 34,-215 -70,-83 -183,-58 -229,52 -21,51 -39,49 -31,-5 17,-103 96,-175 180,-164 55,7 127,47 154,86 21,32 22,42 22,241 v 209 h -42 c -24,-1 -74,-7 -111,-14 -69,-13 -92,-7 -66,19 18,18 212,38 282,29 132,-16 246,-62 352,-142 59,-44 74,-79 74,-172 1,-103 -13,-137 -81,-202 -53,-50 -65,-68 -90,-140 -40,-111 -40,-124 -1,-149 l 32,-20 17,32 c 9,18 25,57 35,87 32,94 64,139 102,146 19,4 42,15 51,25 22,24 45,140 48,239 2,60 6,79 17,78 18,-1 26,28 40,144 24,194 42,243 77,208 14,-13 14,-27 6,-89 -5,-41 -9,-75 -8,-76 6,-7 106,49 106,59 0,31 -102,168 -125,168 -9,0 -15,20 -19,68 -15,161 -60,273 -145,360 -59,59 -215,140 -331,172 -88,24 -231,33 -315,20 z m 295,-56 c 116,-29 227,-89 301,-163 104,-104 149,-216 149,-371 0,-59 -13,-162 -25,-198 -3,-9 -29,4 -78,38 -137,93 -252,129 -414,130 h -73 v 275 275 h -30 -30 v -275 -275 h -69 c -173,0 -317,-41 -434,-123 -78,-54 -75,-58 -84,108 -6,120 3,184 39,266 l 21,50 43,-48 43,-48 1,-122 c 0,-70 4,-124 10,-128 6,-4 10,39 10,120 v 127 l -49,55 -50,56 30,44 c 51,73 158,148 273,190 121,44 284,51 416,17 z m -200,-619 c 0,-32 2,-35 30,-35 28,0 30,3 30,36 v 37 l 88,-7 c 161,-13 235,-38 405,-138 67,-40 67,-41 61,-77 -10,-54 -31,-100 -49,-107 -10,-4 -43,12 -88,43 -197,137 -363,180 -587,153 -119,-15 -188,-45 -309,-135 -41,-31 -82,-54 -90,-53 -19,4 -47,60 -54,108 -5,34 -3,36 57,73 159,95 280,132 454,136 l 52,1 z m -750,-100 c -7,-9 -15,-13 -17,-11 -7,7 7,26 19,26 6,0 6,-6 -2,-15 z m 190,-237 c 0,-16 -4,-28 -10,-28 -5,0 -10,19 -10,43 0,31 3,38 10,27 5,-8 10,-27 10,-42 z m -28,-105 c 3,-86 2,-101 -6,-92 -10,11 -17,179 -8,179 6,0 12,-37 14,-87 z m 1168,0 c 0,-43 -5,-85 -10,-93 -7,-10 -10,14 -10,78 0,55 4,92 10,92 6,0 10,-32 10,-77 z m -782,-15 c 7,-7 12,-16 12,-22 0,-6 -5,-5 -12,2 -21,21 -57,14 -64,-12 -3,-14 -3,-30 2,-37 4,-8 3,-9 -4,-5 -7,4 -12,18 -12,31 0,44 50,71 78,43 z"
         id="path13"
         style="fill:#fffefe;fill-opacity:1" />
      <path
         d="m 3093,3491 -43,-50 v -85 c 0,-51 4,-86 10,-86 6,0 10,35 10,86 0,85 1,87 35,125 29,32 44,59 33,59 -2,0 -22,-22 -45,-49 z"
         id="path14"
         style="fill:#fffefe;fill-opacity:1" />
      <path
         d="m 1013,3767 c -27,-34 -61,-77 -74,-95 l -24,-33 25,-19 c 27,-21 50,-26 50,-11 0,5 29,47 65,94 l 64,86 -28,20 -28,20 z"
         id="path15"
         style="fill:#fffefe;fill-opacity:1" />
      <path
         d="m 3870,3792 c -30,-25 -30,-80 1,-104 28,-23 40,-23 73,3 45,36 30,95 -30,113 -14,4 -30,0 -44,-12 z"
         id="path16"
         style="fill:#fffefe;fill-opacity:1" />
      <path
         d="m 1356,3725 c -20,-20 -20,-39 -2,-54 24,-20 58,4 54,37 -4,32 -29,40 -52,17 z"
         id="path17"
         style="fill:#fffefe;fill-opacity:1" />
      <path
         d="m 3185,3646 c 14,-18 39,-61 55,-94 17,-36 51,-80 85,-113 63,-60 137,-156 185,-241 17,-32 36,-58 41,-58 6,0 24,7 40,16 30,15 30,16 13,42 -38,60 -103,149 -118,161 -16,14 -22,41 -8,41 7,0 35,-38 113,-152 l 47,-67 91,44 c 50,24 91,47 91,51 0,15 -94,146 -159,220 -112,129 -134,137 -196,74 -21,-22 -44,-40 -51,-40 -6,0 -32,16 -59,36 -51,39 -174,114 -188,114 -4,0 4,-15 18,-34 z m 395,-172 c 0,-9 -9,-18 -20,-21 -18,-5 -15,-11 28,-67 58,-73 66,-86 54,-86 -6,0 -32,30 -59,68 -45,61 -62,109 -47,133 8,13 44,-9 44,-27 z m -65,-14 c 7,-12 -12,-40 -26,-40 -10,0 -12,34 -2,43 9,10 21,9 28,-3 z"
         id="path18"
         style="fill:#fffefe;fill-opacity:1" />
      <path
         d="m 1929,3583 c -45,-30 -118,-86 -163,-125 -10,-8 20,-48 35,-48 20,0 133,111 160,158 16,28 28,52 25,52 -2,0 -28,-16 -57,-37 z"
         id="path19"
         style="fill:#fffefe;fill-opacity:1" />
      <path
         d="m 1491,3514 c -96,-98 -176,-207 -167,-230 3,-8 47,-35 98,-59 l 92,-45 19,36 c 13,26 22,33 29,26 8,-8 6,-18 -6,-36 -9,-14 -16,-28 -16,-30 0,-5 55,-36 64,-36 2,0 19,26 37,57 18,32 58,86 88,122 37,44 51,68 45,77 -19,26 -178,199 -187,203 -5,2 -48,-37 -96,-85 z m 159,-89 c -24,-25 -46,-45 -49,-45 -3,0 15,20 39,45 24,25 46,45 49,45 3,0 -15,-20 -39,-45 z m -74,-54 24,-19 -44,-48 c -41,-46 -45,-48 -70,-36 -14,6 -26,16 -26,20 0,13 73,102 83,102 5,0 20,-9 33,-19 z m 134,-6 c 0,-3 -15,-22 -34,-42 -18,-21 -52,-65 -75,-97 -22,-33 -41,-55 -41,-49 0,11 137,193 145,193 3,0 5,-2 5,-5 z"
         id="path20"
         style="fill:#fffefe;fill-opacity:1" />
      <path
         d="m 814,3458 -36,-72 22,-18 c 12,-10 28,-18 35,-18 12,0 85,120 85,140 0,8 -51,40 -64,40 -3,0 -22,-32 -42,-72 z"
         id="path21"
         style="fill:#fffefe;fill-opacity:1" />
      <path
         d="m 888,3402 c -83,-156 -182,-421 -163,-440 9,-10 35,28 35,52 0,39 79,254 130,356 63,126 62,151 -2,32 z"
         id="path22"
         style="fill:#fffefe;fill-opacity:1" />
      <path
         d="m 4260,3457 c 0,-7 23,-67 51,-132 121,-287 176,-585 167,-905 -3,-111 -2,-115 18,-118 18,-3 22,4 28,44 9,71 7,269 -4,385 -13,128 -52,304 -92,418 -43,123 -139,321 -154,321 -8,0 -14,-6 -14,-13 z"
         id="path23"
         style="fill:#fffefe;fill-opacity:1" />
      <path
         d="m 1874,3428 c -53,-44 -56,-49 -38,-77 16,-23 14,-25 -39,-80 -30,-31 -71,-78 -91,-105 -20,-27 -36,-45 -36,-40 1,10 67,101 124,168 31,37 37,49 27,59 -10,9 -22,1 -58,-38 -46,-52 -123,-162 -123,-176 0,-8 91,-59 105,-59 3,0 5,5 5,10 0,18 90,148 118,172 23,19 29,36 40,107 6,47 10,86 9,88 -2,1 -21,-12 -43,-29 z"
         id="path24"
         style="fill:#fffefe;fill-opacity:1" />
      <path
         d="m 3277,3415 c 3,-22 12,-51 21,-64 11,-18 12,-26 4,-29 -23,-7 -12,-35 31,-81 24,-26 56,-69 72,-96 16,-28 30,-52 32,-54 4,-6 83,31 83,38 0,24 -116,188 -176,251 l -73,75 z"
         id="path25"
         style="fill:#fffefe;fill-opacity:1" />
      <path
         d="m 3920,3379 c 0,-6 8,-23 19,-37 33,-48 98,-185 131,-277 41,-116 67,-240 82,-387 12,-127 28,-157 28,-55 0,141 -50,357 -122,527 -68,161 -138,277 -138,229 z"
         id="path26"
         style="fill:#fffefe;fill-opacity:1" />
      <path
         d="m 1251,3166 c -88,-183 -124,-344 -125,-551 0,-190 39,-379 116,-552 18,-41 20,-42 41,-29 12,8 117,46 232,84 175,58 325,112 508,184 30,12 31,15 17,52 l -9,26 -46,-20 c -25,-11 -65,-29 -90,-40 l -45,-19 -20,39 -20,39 -37,-16 c -21,-8 -55,-24 -76,-35 l -38,-19 22,-30 c 15,-22 18,-34 11,-41 -8,-8 -16,0 -28,26 -10,20 -23,36 -30,36 -6,0 -34,-10 -62,-21 l -51,-21 15,-30 c 8,-16 14,-37 12,-46 -3,-12 -11,-4 -26,25 l -22,42 -80,-29 c -45,-16 -103,-39 -131,-51 -48,-21 -68,-21 -55,0 4,6 33,20 65,31 l 58,22 -24,59 c -13,33 -34,104 -45,157 -11,53 -22,103 -24,110 -2,6 -12,12 -23,12 -20,0 -37,17 -27,27 3,3 18,0 34,-6 27,-11 31,-20 47,-99 20,-101 62,-239 75,-247 5,-3 34,6 65,20 44,19 56,29 51,41 -14,35 -45,164 -51,210 -11,79 -14,85 -35,74 -84,-45 -183,45 -146,133 21,52 56,71 114,63 26,-3 73,-9 105,-13 57,-6 57,-6 57,21 v 26 h -149 c -89,0 -152,-4 -156,-10 -9,-15 -25,-12 -25,5 0,25 36,35 128,35 h 89 l 17,83 c 10,45 30,115 46,155 l 28,72 -105,50 c -58,28 -107,50 -109,50 -2,0 -21,-38 -43,-84 z m 524,-855 c 9,-18 11,-32 5,-36 -11,-7 -42,49 -33,59 10,9 11,8 28,-23 z m -50,-21 c 18,-34 18,-40 5,-40 -8,0 -40,51 -40,65 0,16 22,1 35,-25 z"
         id="path27"
         style="fill:#fffefe;fill-opacity:1" />
      <path
         d="m 3745,3198 c -44,-22 -81,-41 -82,-42 -2,-1 13,-40 33,-87 20,-46 46,-131 59,-188 13,-57 27,-106 30,-110 4,-3 34,-6 67,-6 85,0 84,-19 0,-23 -48,-2 -72,1 -80,10 -6,7 -19,56 -30,108 -11,52 -37,139 -58,192 l -38,97 -40,-21 c -23,-11 -42,-22 -44,-23 -2,-2 12,-45 31,-97 41,-110 56,-171 65,-264 l 7,-69 38,-3 c 26,-2 45,2 58,14 15,13 31,16 84,12 36,-3 71,-11 79,-17 13,-11 23,-204 11,-240 -4,-15 -18,-18 -77,-19 -39,-1 -75,-5 -78,-9 -4,-5 -13,-37 -19,-72 -7,-35 -23,-96 -37,-135 -13,-39 -24,-77 -24,-84 0,-11 64,-45 160,-85 30,-12 72,-9 83,7 14,22 56,164 72,247 22,113 22,345 0,475 -9,54 -32,146 -51,204 -36,106 -111,262 -129,266 -5,2 -46,-15 -90,-38 z m -91,-247 c 14,-44 28,-111 30,-148 5,-61 4,-63 -3,-18 -9,50 -46,200 -57,229 -3,9 -4,16 -1,16 4,0 17,-36 31,-79 z m 233,-563 c -3,-8 -6,-5 -6,6 -1,11 2,17 5,13 3,-3 4,-12 1,-19 z m -10,-50 c -3,-7 -5,-2 -5,12 0,14 2,19 5,13 2,-7 2,-19 0,-25 z m -21,-95 c -10,-38 -22,-75 -27,-83 -9,-13 -10,-13 -6,0 3,8 13,48 23,87 10,40 20,71 22,68 2,-2 -3,-35 -12,-72 z m -45,-130 c -12,-20 -14,-14 -5,12 4,9 9,14 11,11 3,-2 0,-13 -6,-23 z"
         id="path28"
         style="fill:#fffefe;fill-opacity:1" />
      <path
         d="m 3275,3148 c -2,-7 -13,-80 -24,-161 -11,-81 -24,-153 -29,-160 -5,-7 -13,-47 -17,-90 -10,-115 -39,-224 -65,-253 -16,-16 -34,-24 -57,-24 -28,0 -35,-6 -51,-37 -11,-21 -29,-68 -41,-106 -13,-37 -40,-94 -62,-126 -42,-63 -120,-141 -141,-141 -8,0 -19,-22 -25,-51 -23,-94 -77,-149 -147,-149 -20,0 -26,-5 -26,-21 0,-20 4,-21 45,-16 59,9 117,39 146,77 13,17 34,43 47,59 12,16 29,46 38,68 9,21 42,65 75,98 53,54 116,156 187,302 18,36 35,43 108,43 52,0 52,0 56,35 4,34 3,35 -28,35 -28,0 -33,-4 -36,-27 -2,-14 -9,-28 -15,-30 -9,-3 -10,3 -4,24 5,15 15,66 21,113 6,47 17,130 25,185 8,55 19,145 25,200 6,55 12,115 15,133 4,31 -11,45 -20,20 z"
         id="path29"
         style="fill:#fffefe;fill-opacity:1" />
      <path
         d="m 711,3117 c -11,-18 -26,-57 -33,-86 -10,-44 -9,-54 3,-61 11,-8 20,8 43,76 31,95 25,132 -13,71 z"
         id="path30"
         style="fill:#fffefe;fill-opacity:1" />
      <path
         d="m 1492,3048 c -17,-51 -34,-111 -38,-133 -3,-22 -8,-48 -11,-57 -4,-15 3,-18 40,-18 h 45 l 7,48 c 4,26 19,86 35,135 l 28,87 -28,15 c -16,8 -33,15 -38,15 -5,0 -23,-42 -40,-92 z"
         id="path31"
         style="fill:#fffefe;fill-opacity:1" />
      <path
         d="m 1601,3044 c -24,-63 -48,-190 -39,-200 4,-3 36,-9 72,-11 l 65,-6 11,44 c 6,24 22,71 35,103 14,33 24,60 22,61 -5,4 -140,65 -142,65 -2,0 -13,-25 -24,-56 z m 38,-42 c -6,-18 -15,-32 -20,-32 -5,0 -1,16 8,35 20,42 27,40 12,-3 z m 96,21 c -4,-10 -16,-45 -27,-78 -22,-64 -38,-90 -38,-63 0,28 52,158 62,158 6,0 7,-8 3,-17 z m -115,-93 c 0,-5 -7,-10 -16,-10 -8,0 -12,5 -9,10 3,6 10,10 16,10 5,0 9,-4 9,-10 z"
         id="path32"
         style="fill:#fffefe;fill-opacity:1" />
      <path
         d="m 3478,3075 -27,-15 24,-55 c 30,-67 60,-185 74,-288 6,-43 11,-80 11,-83 0,-2 -29,-4 -65,-4 h -65 v -35 -36 l 103,3 102,3 -1,105 c 0,118 -21,224 -66,342 -32,83 -41,89 -90,63 z"
         id="path33"
         style="fill:#fffefe;fill-opacity:1" />
      <path
         d="m 3365,3019 c -61,-29 -73,-44 -74,-91 -1,-35 16,-36 86,-3 33,15 55,20 59,14 9,-15 -3,-23 -74,-49 -50,-18 -62,-26 -56,-39 4,-9 11,-43 15,-76 14,-96 23,-120 48,-123 13,-2 27,0 31,5 8,8 -2,133 -15,186 -4,16 -3,27 3,27 12,0 29,-67 38,-152 l 7,-68 h 44 c 30,0 45,5 49,15 15,39 -66,363 -94,379 -4,2 -34,-10 -67,-25 z"
         id="path34"
         style="fill:#fffefe;fill-opacity:1" />
      <path
         d="m 1760,2959 c -18,-57 -37,-166 -40,-226 0,-9 20,-13 66,-13 59,0 65,2 59,18 -3,9 -9,37 -12,62 -4,39 -1,50 20,76 22,25 25,37 20,72 -6,43 -14,51 -66,71 -23,9 -25,6 -47,-60 z"
         id="path35"
         style="fill:#fffefe;fill-opacity:1" />
      <path
         d="m 2600,2805 v -216 l 58,3 c 50,3 57,5 55,23 -4,30 7,75 18,75 5,0 9,-22 9,-50 v -50 h 40 40 v 69 c 0,70 -14,99 -32,67 -5,-9 -16,-16 -24,-16 -23,0 -13,32 13,46 21,10 21,12 6,33 -18,26 -86,60 -120,61 -15,0 -23,6 -23,16 0,14 9,16 50,12 102,-10 170,-99 170,-221 v -69 l 30,5 c 16,4 32,2 35,-3 12,-19 42,-10 53,15 7,14 12,61 12,103 0,136 -48,203 -194,267 -47,21 -146,45 -183,45 -10,0 -13,-44 -13,-215 z"
         id="path36"
         style="fill:#fffefe;fill-opacity:1" />
      <path
         d="m 1112,2850 c 0,-14 2,-19 5,-12 2,6 2,18 0,25 -3,6 -5,1 -5,-13 z"
         id="path37"
         style="fill:#fffefe;fill-opacity:1" />
      <path
         d="m 3276,2824 c -12,-31 -7,-64 9,-58 8,4 15,19 15,34 0,33 -15,48 -24,24 z"
         id="path38"
         style="fill:#fffefe;fill-opacity:1" />
      <path
         d="m 1557,2790 c -7,-36 -2,-40 60,-40 41,0 59,-5 69,-17 12,-16 13,-12 14,29 v 46 l -69,4 c -67,3 -70,2 -74,-22 z"
         id="path39"
         style="fill:#fffefe;fill-opacity:1" />
      <path
         d="m 581,2774 c 0,-11 3,-14 6,-6 3,7 2,16 -1,19 -3,4 -6,-2 -5,-13 z"
         id="path40"
         style="fill:#fffefe;fill-opacity:1" />
      <path
         d="m 3276,2732 c -2,-4 -7,-24 -11,-45 l -7,-37 h 37 c 30,0 35,3 31,18 -3,9 -8,29 -12,45 -6,25 -27,36 -38,19 z"
         id="path41"
         style="fill:#fffefe;fill-opacity:1" />
      <path
         d="m 1440,2720 c 0,-6 45,-10 115,-10 70,0 115,4 115,10 0,6 -45,10 -115,10 -70,0 -115,-4 -115,-10 z"
         id="path42"
         style="fill:#fffefe;fill-opacity:1" />
      <path
         d="m 1327,2702 c -30,-33 -15,-72 28,-72 42,0 59,44 29,74 -20,21 -37,20 -57,-2 z"
         id="path43"
         style="fill:#fffefe;fill-opacity:1" />
      <path
         d="m 880,2684 c 0,-6 8,-18 19,-28 14,-13 19,-38 25,-127 13,-215 72,-438 166,-625 27,-54 47,-101 44,-105 -2,-4 -40,-28 -84,-54 -45,-26 -79,-50 -76,-52 3,-3 44,16 91,42 48,26 88,45 89,43 2,-1 21,-30 44,-63 101,-149 284,-330 461,-455 47,-34 97,-78 111,-98 28,-41 132,-98 277,-151 199,-73 451,-97 693,-66 74,9 142,21 150,26 12,8 11,9 -5,5 -105,-26 -380,-34 -508,-15 -123,18 -268,59 -377,105 -142,59 -170,78 -170,109 0,14 2,25 4,25 2,0 59,-27 127,-59 222,-106 419,-157 644,-167 90,-4 156,-1 215,9 72,12 86,13 93,1 14,-25 35,-15 99,45 112,105 125,160 28,115 -128,-59 -327,-98 -500,-97 -275,2 -570,104 -838,289 -76,53 -96,63 -112,54 -10,-5 -23,-10 -29,-10 -19,0 -81,62 -81,80 0,13 -9,20 -27,22 -20,2 -49,28 -110,97 -236,269 -366,580 -392,943 -7,105 -9,111 -39,141 -18,17 -32,27 -32,21 z"
         id="path44"
         style="fill:#fffefe;fill-opacity:1" />
      <path
         d="m 1548,2683 c -87,-3 -108,-7 -108,-18 0,-12 22,-15 130,-15 123,0 130,1 130,20 0,15 -6,19 -22,18 -13,-1 -71,-4 -130,-5 z"
         id="path45"
         style="fill:#fffefe;fill-opacity:1" />
      <path
         d="m 1724,2615 c 4,-41 13,-96 21,-122 17,-56 19,-73 5,-73 -12,0 -39,89 -46,155 l -6,50 -69,-3 -69,-4 v -37 c 0,-41 30,-167 51,-218 l 14,-32 144,60 c 80,33 147,62 150,64 2,3 -1,16 -8,29 l -13,24 -52,-18 c -42,-14 -51,-21 -50,-40 1,-22 0,-22 -13,-5 -22,31 -16,39 47,59 47,15 59,23 55,35 -4,9 -13,46 -22,84 l -15,67 h -65 -66 z m 94,18 c -10,-2 -28,-2 -40,0 -13,2 -5,4 17,4 22,1 32,-1 23,-4 z m -197,-66 c -13,-13 -26,-3 -16,12 3,6 11,8 17,5 6,-4 6,-10 -1,-17 z m 9,-34 c 0,-26 -1,-26 -14,-7 -11,14 -11,21 -3,26 17,11 17,11 17,-19 z m 14,-78 8,-30 -22,28 c -12,15 -18,32 -15,38 10,14 21,1 29,-36 z m 256,30 c 0,-7 -72,-36 -78,-31 -2,3 11,12 29,20 37,16 49,19 49,11 z m -186,-70 c 3,-9 0,-15 -9,-15 -8,0 -15,7 -15,15 0,8 4,15 9,15 5,0 11,-7 15,-15 z m -46,-18 c 2,-10 -3,-17 -13,-17 -9,0 -13,-4 -10,-10 3,-5 2,-10 -3,-10 -5,0 -9,14 -10,31 0,23 3,29 16,27 9,-2 18,-11 20,-21 z"
         id="path46"
         style="fill:#fffefe;fill-opacity:1" />
      <path
         d="m 590,2628 c 0,-87 23,-275 46,-376 41,-183 165,-522 192,-522 4,0 17,6 27,14 18,13 17,18 -32,122 -104,222 -172,469 -173,632 0,75 17,64 25,-15 21,-202 83,-418 181,-622 30,-62 54,-124 54,-136 0,-17 -13,-31 -45,-52 -46,-29 -52,-37 -35,-48 10,-6 120,54 120,67 0,3 -29,69 -64,145 -72,156 -107,248 -135,361 -28,106 -51,268 -51,349 0,107 -4,113 -61,113 -49,0 -49,0 -49,-32 z"
         id="path47"
         style="fill:#fffefe;fill-opacity:1" />
      <path
         d="m 3810,2635 c -7,-8 -10,-25 -6,-40 5,-21 12,-25 41,-25 29,0 36,4 41,25 8,31 -10,55 -41,55 -12,0 -28,-7 -35,-15 z"
         id="path48"
         style="fill:#fffefe;fill-opacity:1" />
      <path
         d="m 3670,2600 v -40 h 46 47 l -7,31 c -3,17 -6,35 -6,40 0,5 -18,9 -40,9 h -40 z"
         id="path49"
         style="fill:#fffefe;fill-opacity:1" />
      <path
         d="m 3257,2623 c -4,-3 -7,-19 -7,-35 v -28 h 74 c 71,0 74,1 80,25 4,14 4,30 1,35 -7,11 -138,14 -148,3 z"
         id="path50"
         style="fill:#fffefe;fill-opacity:1" />
      <path
         d="m 1447,2613 c -13,-23 44,-288 69,-322 2,-2 23,5 47,14 l 45,17 -19,43 c -18,40 -40,129 -54,218 -6,35 -8,37 -45,37 -21,0 -41,-3 -43,-7 z"
         id="path51"
         style="fill:#fffefe;fill-opacity:1" />
      <path
         d="m 4157,2435 c -26,-446 -226,-853 -562,-1142 -157,-136 -309,-224 -502,-293 -89,-31 -124,-53 -109,-67 4,-4 41,3 84,16 182,53 400,167 552,288 82,66 326,317 348,358 10,21 9,26 -9,38 -21,15 -20,16 40,129 65,123 120,274 152,420 22,104 38,368 22,368 -6,0 -13,-50 -16,-115 z"
         id="path52"
         style="fill:#fffefe;fill-opacity:1" />
      <path
         d="m 2608,2529 c -13,-7 -18,-23 -18,-58 v -48 l 113,42 c 61,24 129,46 149,50 21,4 35,11 32,16 -7,12 -255,11 -276,-2 z"
         id="path53"
         style="fill:#fffefe;fill-opacity:1" />
      <path
         d="m 3812,2528 c -36,-36 7,-91 54,-69 30,13 31,45 2,65 -27,19 -40,20 -56,4 z"
         id="path54"
         style="fill:#fffefe;fill-opacity:1" />
      <path
         d="m 3303,2514 c -3,-8 0,-21 6,-27 10,-9 16,-8 27,7 12,17 14,17 14,3 0,-9 -8,-20 -17,-26 -16,-8 -14,-10 10,-16 42,-11 57,0 57,40 0,35 0,35 -45,35 -32,0 -47,-5 -52,-16 z"
         id="path55"
         style="fill:#fffefe;fill-opacity:1" />
      <path
         d="m 3427,2523 c -4,-3 -7,-23 -7,-44 0,-51 -23,-63 -102,-55 -33,4 -65,9 -73,12 -8,4 -17,-8 -25,-31 -22,-66 14,-92 43,-30 l 16,34 68,-30 c 76,-34 78,-35 66,-42 -4,-3 -33,5 -63,18 -58,25 -80,20 -80,-16 0,-13 17,-28 55,-46 51,-25 70,-43 44,-43 -5,0 -62,25 -125,56 -63,31 -116,55 -118,53 -8,-10 -26,-49 -26,-57 0,-10 209,-101 410,-179 206,-80 260,-104 260,-119 0,-8 -3,-14 -7,-14 -5,0 -80,25 -168,55 -109,37 -161,51 -164,43 -7,-21 34,-43 194,-108 87,-35 159,-70 162,-77 7,-17 -118,-203 -240,-358 -52,-66 -93,-122 -91,-124 7,-8 139,106 210,182 83,90 163,205 218,312 41,81 42,84 19,83 -26,-2 -233,92 -233,106 0,6 9,34 19,62 31,81 59,202 67,287 l 7,77 h -50 -50 l -6,-67 c -8,-89 -39,-218 -66,-271 -32,-64 -42,-41 -14,30 27,67 63,223 63,276 0,31 -1,32 -43,32 h -43 l -12,-76 c -7,-41 -23,-108 -36,-148 -14,-40 -22,-83 -19,-95 6,-24 -5,-27 -31,-8 -17,13 -17,16 -3,38 24,36 67,195 67,245 v 44 h -43 c -24,0 -47,-3 -50,-7 z m 230,-299 c 7,-19 -27,-98 -39,-86 -5,5 -2,24 6,44 11,26 12,38 4,46 -9,9 -8,12 5,12 10,0 20,-7 24,-16 z"
         id="path56"
         style="fill:#fffefe;fill-opacity:1" />
      <path
         d="m 1940,2439 c -8,-5 -36,-18 -62,-29 -53,-21 -56,-28 -30,-59 l 17,-22 78,36 c 43,20 77,41 75,47 -6,17 -62,36 -78,27 z m 35,-28 c -12,-10 -111,-44 -101,-33 9,8 86,41 101,41 6,1 6,-2 0,-8 z"
         id="path57"
         style="fill:#fffefe;fill-opacity:1" />
      <path
         d="m 3164,2425 c 3,-9 0,-15 -10,-15 -19,0 -14,-20 10,-34 13,-9 20,-7 32,8 23,32 18,56 -12,56 -19,0 -25,-4 -20,-15 z"
         id="path58"
         style="fill:#fffefe;fill-opacity:1" />
      <path
         d="m 2527,2283 c 6,-73 16,-99 35,-87 4,3 8,27 8,55 0,58 16,65 25,12 10,-57 13,-62 14,-22 1,28 6,38 21,42 14,3 20,14 20,31 0,26 -13,35 -25,16 -10,-16 -45,-12 -75,10 l -28,20 z"
         id="path59"
         style="fill:#fffefe;fill-opacity:1" />
      <path
         d="m 2690,2296 c 0,-10 5,-26 11,-37 8,-17 5,-25 -21,-49 -18,-17 -40,-30 -49,-30 -20,0 -41,-19 -41,-37 0,-35 103,14 127,60 16,32 10,79 -13,98 -11,9 -14,8 -14,-5 z"
         id="path60"
         style="fill:#fffefe;fill-opacity:1" />
      <path
         d="m 2038,2268 c -39,-31 -117,-152 -168,-260 l -55,-118 h -37 -38 v -127 c 0,-159 32,-323 62,-323 11,0 5,78 -13,165 -6,28 -9,97 -7,155 2,83 6,105 18,108 13,2 14,-11 6,-99 -7,-75 -6,-114 3,-152 7,-29 15,-87 18,-130 4,-73 6,-78 34,-92 l 29,-16 v 45 c 0,58 -8,76 -33,76 -20,0 -20,0 -2,14 19,14 19,15 -4,62 -23,44 -24,54 -18,173 6,126 19,195 38,207 17,10 17,2 3,-66 -8,-36 -15,-108 -16,-160 -2,-84 1,-101 24,-151 18,-37 29,-81 34,-132 6,-70 10,-80 36,-98 15,-11 32,-19 36,-17 16,6 -16,212 -43,278 -23,55 -27,79 -27,156 1,95 12,161 39,232 21,56 27,47 14,-20 -15,-76 -30,-219 -24,-235 3,-8 21,-13 45,-13 34,0 39,-3 33,-17 -4,-10 -9,-25 -11,-33 -2,-8 27,-51 64,-96 79,-93 132,-177 227,-359 38,-71 70,-124 73,-117 6,18 -109,249 -171,345 -30,46 -82,115 -116,155 l -62,72 19,28 c 11,15 29,46 40,68 l 21,41 -34,39 c -42,47 -54,40 -26,-15 12,-22 21,-42 21,-45 0,-16 -37,-36 -66,-36 h -35 l 6,53 c 4,28 11,85 16,125 5,40 9,92 9,115 0,30 12,66 40,120 45,88 44,130 -2,95 z"
         id="path61"
         style="fill:#fffefe;fill-opacity:1" />
      <path
         d="m 3080,2247 c 0,-11 24,-60 54,-110 82,-140 103,-187 124,-273 34,-134 34,-166 8,-278 -27,-111 -39,-286 -20,-286 24,0 31,29 48,175 21,182 40,228 31,75 -3,-58 -9,-130 -14,-161 l -7,-56 33,19 c 18,11 33,24 33,30 0,13 80,124 156,218 34,42 69,90 78,108 15,30 15,32 0,32 -24,0 -132,-116 -184,-198 -25,-39 -48,-72 -51,-72 -4,0 -9,69 -12,153 -9,274 -63,410 -232,594 -33,36 -44,43 -45,30 z"
         id="path62"
         style="fill:#fffefe;fill-opacity:1" />
      <path
         d="m 2780,2198 c -26,-30 -63,-60 -93,-73 l -49,-23 31,-16 c 17,-9 38,-28 47,-41 21,-32 34,-32 34,0 0,18 8,28 33,38 17,8 49,35 71,61 37,46 38,47 20,67 -38,42 -47,41 -94,-13 z"
         id="path63"
         style="fill:#fffefe;fill-opacity:1" />
      <path
         d="m 3051,2210 c 0,-14 6,-38 14,-55 13,-29 13,-29 14,-5 0,14 -6,39 -14,55 -13,29 -13,29 -14,5 z"
         id="path64"
         style="fill:#fffefe;fill-opacity:1" />
      <path
         d="m 2075,2190 c -4,-17 -5,-34 -2,-36 3,-3 8,9 12,26 4,17 5,34 2,36 -3,3 -8,-9 -12,-26 z"
         id="path65"
         style="fill:#fffefe;fill-opacity:1" />
      <path
         d="m 2440,2207 c 0,-9 15,-27 33,-41 36,-28 97,-45 97,-29 0,21 -41,61 -67,65 -16,3 -36,9 -45,13 -13,5 -18,3 -18,-8 z"
         id="path66"
         style="fill:#fffefe;fill-opacity:1" />
      <path
         d="m 2147,2114 c -11,-11 -8,-155 4,-199 6,-22 30,-94 55,-160 24,-66 87,-244 140,-396 94,-272 97,-277 126,-283 17,-3 46,-6 64,-6 h 34 l -2,213 -3,212 -27,3 -28,3 v -125 c 0,-77 -4,-126 -10,-126 -6,0 -10,42 -10,106 0,67 -4,103 -10,99 -6,-3 -10,4 -10,18 0,19 -7,26 -30,31 -16,3 -30,11 -30,17 0,7 7,8 18,4 27,-12 142,-11 142,0 0,6 -36,16 -80,23 -79,11 -184,48 -175,62 2,4 35,-3 72,-16 94,-30 183,-41 183,-21 0,12 -17,17 -66,23 -77,8 -183,56 -228,103 -40,42 -28,48 19,11 61,-48 134,-79 208,-86 l 67,-7 v 82 c 0,78 -1,81 -23,81 -23,0 -108,21 -138,34 -14,6 -18,-2 -24,-53 -10,-90 -28,-89 -24,0 2,63 -2,83 -26,137 -16,34 -35,62 -43,62 -33,0 -73,37 -105,97 -18,35 -36,60 -40,57 z"
         id="path67"
         style="fill:#fffefe;fill-opacity:1" />
      <path
         d="m 2990,2103 c 0,-10 -14,-41 -30,-70 -26,-45 -35,-53 -71,-60 -37,-7 -44,-13 -55,-46 -7,-21 -23,-51 -34,-68 -14,-19 -26,-59 -33,-111 -8,-52 -17,-83 -26,-86 -10,-3 -12,2 -8,19 3,13 9,53 13,88 l 7,63 -24,-15 c -13,-9 -42,-18 -64,-22 -79,-13 -75,-8 -75,-97 v -81 l 75,6 c 80,6 157,35 220,83 51,38 53,24 4,-21 -56,-50 -114,-74 -215,-88 -56,-8 -84,-16 -84,-24 0,-19 99,-6 183,24 77,27 97,25 46,-6 -36,-22 -149,-51 -198,-51 -24,0 -31,-4 -31,-20 0,-17 7,-20 43,-20 23,0 67,7 97,15 64,17 83,19 75,6 -7,-13 -106,-41 -142,-41 -44,0 -73,-11 -73,-28 0,-12 11,-14 70,-9 38,3 72,2 75,-3 8,-12 -22,-20 -80,-20 -39,0 -54,-4 -59,-16 -11,-29 -6,-33 47,-36 28,-2 52,-7 52,-13 0,-5 -24,-11 -52,-13 l -53,-3 v -45 c 0,-32 4,-44 15,-44 8,0 15,-5 15,-10 0,-6 -7,-13 -15,-16 -11,-5 -15,-24 -15,-81 v -75 l 48,6 c 119,17 100,-7 175,219 37,111 84,261 106,332 21,72 49,155 61,184 12,30 26,78 31,105 11,56 2,206 -12,206 -5,0 -9,-8 -9,-17 z"
         id="path68"
         style="fill:#fffefe;fill-opacity:1" />
      <path
         d="m 1518,2072 c -99,-43 -120,-58 -95,-68 9,-3 52,8 94,26 88,36 123,56 123,70 0,18 -34,10 -122,-28 z"
         id="path69"
         style="fill:#fffefe;fill-opacity:1" />
      <path
         d="m 2491,2091 c -52,-19 -66,-38 -57,-75 6,-26 9,-27 69,-24 l 62,3 3,34 c 4,44 -5,81 -21,80 -6,-1 -32,-8 -56,-18 z"
         id="path70"
         style="fill:#fffefe;fill-opacity:1" />
      <path
         d="m 2596,2083 c -3,-4 -6,-26 -6,-50 0,-48 18,-57 52,-26 17,15 19,15 33,-3 33,-44 -2,-94 -65,-94 -13,0 -20,-7 -20,-20 0,-41 93,-12 123,39 24,41 21,73 -10,104 -31,29 -97,60 -107,50 z"
         id="path71"
         style="fill:#fffefe;fill-opacity:1" />
      <path
         d="m 2918,2066 c -10,-7 -18,-21 -18,-31 0,-15 2,-15 16,-5 19,16 37,50 27,50 -4,0 -16,-7 -25,-14 z"
         id="path72"
         style="fill:#fffefe;fill-opacity:1" />
      <path
         d="m 3143,2065 c 26,-94 57,-250 57,-287 0,-15 -9,-18 -55,-18 -69,0 -76,13 -40,75 30,50 25,75 -6,35 -54,-69 -54,-72 1,-161 27,-44 50,-85 50,-91 0,-18 -48,-76 -146,-179 -84,-88 -135,-161 -193,-278 -32,-62 -8,-42 30,27 54,95 98,152 205,262 56,58 109,121 118,138 17,33 17,33 -13,74 -17,23 -31,45 -31,49 0,4 25,11 55,14 63,8 63,6 44,128 -12,74 -53,204 -71,222 -7,7 -8,3 -5,-10 z"
         id="path73"
         style="fill:#fffefe;fill-opacity:1" />
      <path
         d="m 2230,2037 c 0,-18 28,-42 37,-33 9,8 -9,38 -25,44 -7,2 -12,-3 -12,-11 z"
         id="path74"
         style="fill:#fffefe;fill-opacity:1" />
      <path
         d="m 1272,1970 c -26,-24 -25,-27 43,-118 51,-70 206,-229 275,-282 l 44,-35 -34,50 c -70,103 -254,361 -273,383 -25,27 -28,27 -55,2 z"
         id="path75"
         style="fill:#fffefe;fill-opacity:1" />
      <path
         d="m 2497,1958 c 6,-10 153,-10 153,0 0,4 -36,7 -79,7 -44,0 -77,-3 -74,-7 z"
         id="path76"
         style="fill:#fffefe;fill-opacity:1" />
      <path
         d="m 4226,1850 c -53,-128 -129,-245 -283,-438 -24,-31 -25,-34 -10,-49 9,-9 18,-15 20,-12 2,2 28,38 59,79 103,138 185,287 233,423 27,76 47,93 53,48 7,-47 -164,-363 -262,-486 -41,-50 -49,-65 -39,-65 9,0 118,149 167,228 36,57 118,224 141,285 17,46 17,48 -1,62 -10,8 -24,15 -30,15 -6,0 -28,-40 -48,-90 z"
         id="path77"
         style="fill:#fffefe;fill-opacity:1" />
      <path
         d="m 2430,1915 c 35,-42 140,-62 140,-26 0,15 -10,19 -52,24 -29,4 -64,9 -78,13 -23,7 -24,6 -10,-11 z"
         id="path78"
         style="fill:#fffefe;fill-opacity:1" />
      <path
         d="m 3844,1725 c -9,-23 3,-45 25,-45 25,0 34,14 26,40 -7,23 -43,27 -51,5 z"
         id="path79"
         style="fill:#fffefe;fill-opacity:1" />
      <path
         d="m 940,1647 c -57,-35 -71,-53 -46,-63 19,-7 116,52 116,71 0,26 -17,24 -70,-8 z"
         id="path80"
         style="fill:#fffefe;fill-opacity:1" />
      <path
         d="m 1163,1638 c -56,-27 -34,-64 145,-250 80,-83 112,-100 112,-60 0,9 -55,71 -122,139 l -121,123 21,23 c 32,34 12,48 -35,25 z"
         id="path81"
         style="fill:#fffefe;fill-opacity:1" />
      <path
         d="m 973,1504 c -24,-14 -43,-28 -43,-31 0,-3 37,-52 82,-110 333,-425 797,-705 1289,-777 114,-17 360,-20 444,-6 36,7 15,8 -74,5 -145,-6 -315,8 -456,36 -191,38 -434,133 -465,181 -8,13 -17,49 -20,82 l -5,59 -93,56 c -51,31 -147,98 -213,149 -66,52 -123,91 -126,88 -19,-19 234,-218 355,-280 19,-10 31,-20 28,-23 -16,-16 -222,125 -347,237 -38,34 -69,56 -69,50 0,-28 194,-195 313,-270 37,-23 67,-44 67,-47 0,-4 -24,9 -111,63 -83,51 -289,235 -289,258 0,5 11,19 25,32 14,13 25,27 25,31 -1,4 -51,61 -113,126 -126,130 -134,134 -204,91 z m 264,-230 c -9,-9 -28,6 -21,18 4,6 10,6 17,-1 6,-6 8,-13 4,-17 z"
         id="path82"
         style="fill:#fffefe;fill-opacity:1" />
      <path
         d="m 4037,1313 c -49,-56 -59,-89 -31,-100 12,-4 33,11 71,50 45,47 52,59 44,75 -19,35 -36,30 -84,-25 z"
         id="path83"
         style="fill:#fffefe;fill-opacity:1" />
      <path
         d="m 3087,1308 c -31,-17 -57,-34 -57,-38 0,-9 49,-55 53,-49 1,2 16,22 33,44 60,79 54,87 -29,43 z"
         id="path84"
         style="fill:#fffefe;fill-opacity:1" />
      <path
         d="m 3426,1317 c -33,-24 0,-76 39,-61 20,8 19,60 -1,68 -20,8 -17,8 -38,-7 z"
         id="path85"
         style="fill:#fffefe;fill-opacity:1" />
      <path
         d="m 2953,1302 c -18,-11 -33,-152 -17,-152 38,0 44,11 44,86 0,73 -3,81 -27,66 z"
         id="path86"
         style="fill:#fffefe;fill-opacity:1" />
      <path
         d="M 3795,1154 C 3525,896 3158,743 2700,697 c -30,-3 -29,-4 10,-5 104,-4 354,48 526,109 186,65 413,197 540,313 54,49 63,54 75,40 14,-17 12,-18 -101,-108 C 3332,716 2737,578 2200,686 c -43,9 -81,22 -89,32 -10,12 -15,14 -18,5 -3,-8 -14,-11 -31,-7 -50,12 -237,87 -274,111 -21,13 -38,20 -38,16 2,-54 238,-156 465,-202 139,-28 348,-43 473,-33 91,7 105,6 113,-9 8,-15 15,-15 106,1 185,34 446,121 603,200 79,40 283,178 348,235 l 52,47 -20,25 -19,25 29,25 c 34,29 39,58 11,73 -11,5 -21,10 -23,10 -2,-1 -43,-39 -93,-86 z"
         id="path87"
         style="fill:#fffefe;fill-opacity:1" />
      <path
         d="m 2062,765 c 12,-13 260,-65 333,-70 68,-4 67,-4 -21,10 -78,12 -234,44 -299,62 -11,3 -17,2 -13,-2 z"
         id="path88"
         style="fill:#fffefe;fill-opacity:1" />
      <path
         d="m 3350,710 c -8,-5 -50,-22 -92,-37 -43,-15 -78,-31 -78,-35 0,-5 3,-8 7,-8 17,0 203,75 203,82 0,11 -22,10 -40,-2 z"
         id="path89"
         style="fill:#fffefe;fill-opacity:1" />
      <path
         d="m 2523,683 c 26,-2 68,-2 95,0 26,2 4,3 -48,3 -52,0 -74,-1 -47,-3 z"
         id="path90"
         style="fill:#fffefe;fill-opacity:1" />
      <path
         d="m 3018,593 c -19,-5 -24,-18 -9,-27 5,-3 20,3 32,14 24,19 16,24 -23,13 z"
         id="path91"
         style="fill:#fffefe;fill-opacity:1" />
    </g>
  </g>
</svg>
